<?xml version="1.0" encoding="UTF-8"?>
<svg width="36px" height="36px" viewBox="0 0 36 36" version="1.1" xmlns="http://www.w3.org/2000/svg" xmlns:xlink="http://www.w3.org/1999/xlink">
    <title>3E758670-1D77-4ACA-9044-F7B7B1CA25E7</title>
    <defs>
        <path d="M15,7.5 C19.1421356,7.5 22.5,10.8578644 22.5,15 C22.5,16.9923256 21.7231536,18.8032091 20.4558442,20.1462668 L28.0928301,27.7821699 L27.0321699,28.8428301 L19.320523,21.1312636 C18.0991626,21.9934976 16.6087313,22.5 15,22.5 C10.8578644,22.5 7.5,19.1421356 7.5,15 C7.5,10.8578644 10.8578644,7.5 15,7.5 Z M15,9 C11.6862915,9 9,11.6862915 9,15 C9,18.3137085 11.6862915,21 15,21 C18.3137085,21 21,18.3137085 21,15 C21,11.6862915 18.3137085,9 15,9 Z" id="path-1"></path>
    </defs>
    <g id="Symbols" stroke="none" stroke-width="1" fill="none" fill-rule="evenodd">
        <g id="Icon-/-36-/-search">
            <mask id="mask-2" fill="white">
                <use xlink:href="#path-1"></use>
            </mask>
            <use id="Icon" fill="#000000" xlink:href="#path-1"></use>
        </g>
    </g>
</svg>